<?xml version="1.0" encoding="UTF-8" standalone="no"?>
<!-- Created with Inkscape (http://www.inkscape.org/) -->

<svg
   width="145.04128mm"
   height="28.841133mm"
   viewBox="0 0 145.04128 28.841133"
   version="1.1"
   id="svg1"
   inkscape:export-filename="logo_transparent.png"
   inkscape:export-xdpi="300"
   inkscape:export-ydpi="300"
   xmlns:inkscape="http://www.inkscape.org/namespaces/inkscape"
   xmlns:sodipodi="http://sodipodi.sourceforge.net/DTD/sodipodi-0.dtd"
   xmlns="http://www.w3.org/2000/svg"
   xmlns:svg="http://www.w3.org/2000/svg">
  <sodipodi:namedview
     id="namedview1"
     pagecolor="#505050"
     bordercolor="#eeeeee"
     borderopacity="1"
     inkscape:showpageshadow="0"
     inkscape:pageopacity="0"
     inkscape:pagecheckerboard="0"
     inkscape:deskcolor="#505050"
     inkscape:document-units="mm" />
  <defs
     id="defs1">
    <linearGradient
       id="swatch31"
       inkscape:swatch="solid">
      <stop
         style="stop-color:#9cb7cf;stop-opacity:1;"
         offset="0"
         id="stop31" />
    </linearGradient>
  </defs>
  <g
     inkscape:label="logo"
     inkscape:groupmode="layer"
     id="layer1">
    <path
       d="M 26.35963,0 V 0.6149496 H 21.931995 V 0 Z M 93.262523,0 V 0.6149496 H 88.834888 V 0 Z m 40.141737,0 v 0.6149496 h -4.42764 V 0 Z M 8.5188596,9.2604166 V 9.8753662 H 4.091223 V 9.2604166 Z m 4.4601934,0 V 9.8753662 H 8.5514158 V 9.2604166 Z m 4.460193,0 V 9.8753662 H 13.011609 V 9.2604166 Z m 3.12539,-6.670394 q -0.481107,0.824756 -0.719852,1.6458944 -0.235128,0.8175212 -0.235128,1.6495117 0,0.8283733 0.235128,1.6495117 0.238745,0.8211386 0.719852,1.653129 H 19.98586 Q 19.43964,8.3271402 19.171956,7.5132363 18.904272,6.6957151 18.904272,5.8854287 q 0,-0.8066691 0.267684,-1.6241901 0.267684,-0.8175212 0.813904,-1.671216 z m 5.794994,6.670394 V 9.8753662 H 21.931995 V 9.2604166 Z m 1.291394,-6.670394 H 28.2298 q 0.546222,0.8536948 0.813906,1.671216 0.267682,0.817521 0.267682,1.6241901 0,0.8139038 -0.267682,1.631425 -0.267684,0.8175212 -0.813906,1.6712157 h -0.578776 q 0.481108,-0.8392252 0.716235,-1.6603635 0.238747,-0.8211386 0.238747,-1.6422772 0,-0.8247558 -0.238747,-1.6458944 Q 28.132132,3.418396 27.651024,2.5900226 Z M 39.74021,9.2604166 V 9.8753662 H 35.312572 V 9.2604166 Z m 8.920384,0 V 9.8753662 H 44.232959 V 9.2604166 Z m 4.460193,0 V 9.8753662 H 48.693151 V 9.2604166 Z m 13.380579,0 V 9.8753662 H 62.073731 V 9.2604166 Z m 13.38058,0 V 9.8753662 H 75.454308 V 9.2604166 Z M 87.058769,2.9119668 V 10.3203 H 86.436583 V 2.9119668 Z m 8.920384,0 V 10.3203 H 95.35697 V 2.9119668 Z M 106.6431,9.2604166 v 0.6149496 h -4.42764 V 9.2604166 Z m 4.46019,0 v 0.6149496 h -4.42763 V 9.2604166 Z m 8.92039,0 v 0.6149496 h -4.42764 V 9.2604166 Z M 127.2005,2.9119668 V 10.3203 h -0.62218 V 2.9119668 Z m 8.92039,0 V 10.3203 H 135.4987 V 2.9119668 Z m 6.20375,6.3484498 v 0.6149496 h -4.42763 V 9.2604166 Z M 2.7238645,11.850439 Q 2.242757,12.675195 2.0040118,13.496333 1.768884,14.313854 1.768884,15.145845 q 0,0.828373 0.2351278,1.649512 0.2387452,0.821138 0.7198527,1.653129 h -0.578776 q -0.5462199,-0.86093 -0.8139036,-1.674834 -0.267684,-0.817521 -0.267684,-1.627807 0,-0.806669 0.267684,-1.62419 0.2676837,-0.817521 0.8139036,-1.671216 z m 5.7949951,6.670394 v 0.614949 H 4.091223 v -0.614949 z m 0.4015259,-3.306258 h 3.8343915 v 0.611332 H 8.9203855 Z m 8.2330895,-0.857312 -3.074748,1.157552 3.074748,1.1467 v 0.661975 l -3.823539,-1.512053 v -0.60048 l 3.823539,-1.512052 z m 3.002401,-2.18488 v 7.408333 h -0.622185 v -7.408333 z m 8.920385,0 v 7.408333 h -0.622184 v -7.408333 z m 4.460192,0 v 7.408333 H 32.91427 v -7.408333 z m 8.920387,0.02532 v 2.253609 h -0.810286 v -2.253609 z m 11.756388,0.235127 2.843236,6.088001 h -0.687295 l -2.846856,-6.088 z m 6.084382,-0.260449 v 7.408333 h -0.622184 v -7.408333 z m 8.920387,0 v 7.408333 h -0.622184 v -7.408333 z m 4.460192,0 v 7.408333 h -0.622183 v -7.408333 z m 8.920385,0 v 7.408333 H 81.97639 v -7.408333 z m 4.460195,0 v 7.408333 h -0.622186 v -7.408333 z m 8.920384,0 v 7.408333 H 95.35697 v -7.408333 z m 4.991947,0.260449 h 0.68729 l -2.843234,6.088002 h -0.690914 z m 10.13219,6.088001 v 0.61495 h -4.42763 v -0.61495 z m 1.75804,-6.612516 1.01647,1.360123 h -0.55707 l -1.17564,-1.360122 z m 9.87898,0.264066 v 7.408333 h -0.62218 v -7.408333 z m 4.46019,0 v 7.408333 h -0.62218 v -7.408333 z m 15.12414,6.34845 v 0.61495 h -4.42763 v -0.61495 z m 2.71663,-6.34845 v 7.408333 h -0.62218 V 12.172382 Z M 2.8468545,21.693249 H 3.534151 L 0.69091385,27.78125 H 0 Z M 8.5188596,27.78125 V 28.3962 H 4.091223 v -0.61495 z m 4.4601934,0 V 28.3962 H 8.5514158 v -0.61495 z m 3.24838,-6.088001 h 0.687297 l -2.843238,6.088001 h -0.690913 z m 3.928443,-0.260448 v 7.408333 h -0.622185 v -7.408333 z m 6.203754,6.348449 v 0.61495 h -4.427635 v -0.61495 z m 2.716631,-6.348449 v 7.408333 h -0.622184 v -7.408333 z m 4.460192,0 v 7.408333 H 32.91427 v -7.408333 z m 6.203757,6.348449 v 0.61495 h -4.427638 v -0.61495 z m 2.71663,-6.348449 v 7.408333 h -0.622186 v -7.408333 z m 6.203754,6.348449 v 0.61495 h -4.427635 v -0.61495 z m 2.716631,-6.348449 v 7.408333 h -0.622184 v -7.408333 z m 6.203757,6.348449 v 0.61495 h -4.427638 v -0.61495 z m 2.716628,-6.348449 v 7.408333 h -0.622184 v -7.408333 z m 2.836002,0.260448 2.843239,6.088001 H 65.289554 L 62.4427,21.693249 Z m 7.827947,6.088001 v 0.61495 h -4.427636 v -0.61495 z m 1.631426,-1.993162 h 1.128612 v 0.958599 l -0.80305,1.559078 -0.723472,0.0036 0.39791,-1.562695 z m 7.288961,1.993162 v 0.61495 h -4.427638 v -0.61495 z m 2.716628,-6.348449 v 7.408333 H 81.97639 v -7.408333 z m 4.460195,0 v 7.408333 h -0.622186 v -7.408333 z m 6.203754,6.348449 v 0.61495 h -4.427635 v -0.61495 z m 2.71663,-6.348449 v 7.408333 H 95.35697 v -7.408333 z m 2.836003,0.260448 2.843234,6.088001 h -0.68729 l -2.846858,-6.088001 z m 7.827944,6.088001 v 0.61495 h -4.42764 v -0.61495 z m 4.46019,0 v 0.61495 h -4.42763 v -0.61495 z m 1.63143,-1.993162 h 1.12861 v 0.958599 l -0.80305,1.559078 -0.72347,0.0036 0.39791,-1.562695 z m 7.28896,1.993162 v 0.61495 h -4.42764 v -0.61495 z m 2.71663,-6.348449 v 7.408333 h -0.62218 v -7.408333 z m 7.29619,0.260448 2.84324,6.088001 h -0.68729 l -2.84686,-6.088001 z m 7.82795,6.088001 v 0.61495 h -4.42763 v -0.61495 z m 4.46019,0 v 0.61495 h -4.42763 v -0.61495 z m 2.71663,-6.348449 v 7.408333 h -0.62218 v -7.408333 z"
       id="text4"
       style="font-size:28px;font-family:'MesloLGS NF';-inkscape-font-specification:'MesloLGS NF';white-space:pre;fill:#9cb7cf;fill-opacity:1;stroke-width:0.264583"
       aria-label="      _              _        _   &#10;  ___(_) _ __  _  _ | | __ _ | |_ &#10; (_-&lt;| || '  \| || || |/ _` ||  _|&#10; /__/|_||_|_|_|\_,_||_|\__,_| \__|&#10;                                  " />
    <path
       style="fill:#9cb7cf;fill-opacity:1;stroke-width:0.734633"
       d="m 57.457162,62.238435 c -4.289907,-1.751296 -6.384958,-2.984013 -6.244383,-3.674162 0.216729,-1.064029 12.287894,-6.327977 12.963011,-5.652861 0.679564,0.679565 -0.939229,1.635454 -5.611348,3.313472 -2.537713,0.911434 -4.774577,1.916934 -4.970809,2.234445 -0.196233,0.317511 2.128016,1.501343 5.164997,2.630739 3.036982,1.129397 5.521784,2.474543 5.521784,2.989214 0,0.51467 -0.08265,0.904025 -0.183658,0.865233 -0.101012,-0.03879 -3.08883,-1.256528 -6.639594,-2.70608 z"
       id="path4"
       transform="scale(0.26458333)" />
    <path
       style="fill:#9cb7cf;fill-opacity:1;stroke-width:0.353553"
       d="m 37.211494,57.542271 c 1.993157,-0.06302 5.254687,-0.06302 7.247845,0 1.993157,0.06302 0.362392,0.114581 -3.623923,0.114581 -3.986314,0 -5.617079,-0.05156 -3.623922,-0.114581 z"
       id="path11"
       transform="scale(0.26458333)" />
  </g>
</svg>
